<mxfile host="app.diagrams.net" modified="2024-01-08T16:23:07.768Z" agent="Mozilla/5.0 (Windows NT 10.0; Win64; x64) AppleWebKit/537.36 (KHTML, like Gecko) Chrome/120.0.0.0 Safari/537.36" etag="8swoJSGRxMeJc671gBFs" version="22.1.17" type="github">
  <diagram name="Page-1" id="x_uMSooGgsukZ-Ix-U7x">
    <mxGraphModel dx="2345" dy="949" grid="1" gridSize="10" guides="1" tooltips="1" connect="1" arrows="1" fold="1" page="1" pageScale="1" pageWidth="827" pageHeight="1169" math="0" shadow="0">
      <root>
        <mxCell id="0" />
        <mxCell id="1" parent="0" />
        <mxCell id="Omg0Aai6-efXcpIrVsby-10" value="" style="group" parent="1" vertex="1" connectable="0">
          <mxGeometry x="30" y="60" width="1550" height="1090" as="geometry" />
        </mxCell>
        <mxCell id="Omg0Aai6-efXcpIrVsby-3" value="" style="rounded=0;whiteSpace=wrap;html=1;" parent="Omg0Aai6-efXcpIrVsby-10" vertex="1">
          <mxGeometry y="63.09" width="1550" height="1026.91" as="geometry" />
        </mxCell>
        <mxCell id="Omg0Aai6-efXcpIrVsby-6" value="" style="rounded=0;whiteSpace=wrap;html=1;" parent="Omg0Aai6-efXcpIrVsby-10" vertex="1">
          <mxGeometry y="30" width="134" height="33.09" as="geometry" />
        </mxCell>
        <mxCell id="Omg0Aai6-efXcpIrVsby-4" value="&lt;pre style=&quot;box-sizing: border-box; border: 0px; font-variant-numeric: inherit; font-variant-east-asian: inherit; font-variant-alternates: inherit; font-variant-position: inherit; font-stretch: inherit; font-size: 13px; line-height: 19.5px; font-optical-sizing: inherit; font-kerning: inherit; font-feature-settings: inherit; font-variation-settings: inherit; vertical-align: baseline; cursor: text; counter-reset: list-0 0; text-align: left; color: rgb(52, 52, 52) !important; margin-top: 5px !important; margin-bottom: 5px !important; padding: 5px 10px !important; overflow: hidden !important; background: rgb(247, 247, 247) !important; border-radius: 4px !important;&quot;&gt;Fitness Web App&lt;/pre&gt;" style="text;html=1;align=center;verticalAlign=middle;resizable=0;points=[];autosize=1;strokeColor=none;fillColor=none;" parent="Omg0Aai6-efXcpIrVsby-10" vertex="1">
          <mxGeometry x="309" y="75.45454545454545" width="150" height="50" as="geometry" />
        </mxCell>
        <mxCell id="Omg0Aai6-efXcpIrVsby-17" value="" style="group" parent="Omg0Aai6-efXcpIrVsby-10" vertex="1" connectable="0">
          <mxGeometry x="60" y="230" width="270" height="460" as="geometry" />
        </mxCell>
        <mxCell id="Omg0Aai6-efXcpIrVsby-14" value="" style="rounded=0;whiteSpace=wrap;html=1;" parent="Omg0Aai6-efXcpIrVsby-17" vertex="1">
          <mxGeometry y="20" width="220" height="390" as="geometry" />
        </mxCell>
        <mxCell id="Omg0Aai6-efXcpIrVsby-16" value="" style="rounded=0;whiteSpace=wrap;html=1;" parent="Omg0Aai6-efXcpIrVsby-17" vertex="1">
          <mxGeometry width="100" height="20" as="geometry" />
        </mxCell>
        <mxCell id="Omg0Aai6-efXcpIrVsby-15" value="&lt;pre style=&quot;box-sizing: border-box; border: 0px; font-variant-numeric: inherit; font-variant-east-asian: inherit; font-variant-alternates: inherit; font-variant-position: inherit; font-stretch: inherit; line-height: 19.5px; font-optical-sizing: inherit; font-kerning: inherit; font-feature-settings: inherit; font-variation-settings: inherit; vertical-align: baseline; cursor: text; counter-reset: list-0 0; text-align: left; color: rgb(52, 52, 52) !important; margin-top: 5px !important; margin-bottom: 5px !important; padding: 5px 10px !important; overflow: hidden !important; background: rgb(247, 247, 247) !important; border-radius: 4px !important; font-size: 13px;&quot;&gt;User Interface&lt;br&gt;&lt;/pre&gt;" style="text;html=1;align=center;verticalAlign=middle;resizable=0;points=[];autosize=1;strokeColor=none;fillColor=none;fontSize=13;" parent="Omg0Aai6-efXcpIrVsby-17" vertex="1">
          <mxGeometry x="45" y="20" width="140" height="50" as="geometry" />
        </mxCell>
        <mxCell id="Omg0Aai6-efXcpIrVsby-21" value="" style="group" parent="Omg0Aai6-efXcpIrVsby-17" vertex="1" connectable="0">
          <mxGeometry x="40" y="70" width="120" height="60" as="geometry" />
        </mxCell>
        <mxCell id="Omg0Aai6-efXcpIrVsby-18" value="" style="rounded=0;whiteSpace=wrap;html=1;" parent="Omg0Aai6-efXcpIrVsby-21" vertex="1">
          <mxGeometry y="20" width="120" height="40" as="geometry" />
        </mxCell>
        <mxCell id="Omg0Aai6-efXcpIrVsby-19" value="&lt;span style=&quot;color: rgb(209, 100, 100); font-family: -apple-system, BlinkMacSystemFont, &amp;quot;Segoe UI&amp;quot;, roboto, &amp;quot;Helvetica Neue&amp;quot;, helvetica, arial, sans-serif; font-size: 14px; font-style: normal; font-variant-ligatures: normal; font-variant-caps: normal; font-weight: 400; letter-spacing: normal; orphans: 2; text-align: left; text-indent: 0px; text-transform: none; widows: 2; word-spacing: 0px; -webkit-text-stroke-width: 0px; background-color: rgb(247, 247, 247); text-decoration-thickness: initial; text-decoration-style: initial; text-decoration-color: initial; float: none; display: inline !important;&quot;&gt;Dashboard&lt;/span&gt;" style="text;whiteSpace=wrap;html=1;" parent="Omg0Aai6-efXcpIrVsby-21" vertex="1">
          <mxGeometry x="20" y="20" width="100" height="40" as="geometry" />
        </mxCell>
        <mxCell id="Omg0Aai6-efXcpIrVsby-20" value="" style="rounded=0;whiteSpace=wrap;html=1;" parent="Omg0Aai6-efXcpIrVsby-21" vertex="1">
          <mxGeometry width="35" height="20" as="geometry" />
        </mxCell>
        <mxCell id="Omg0Aai6-efXcpIrVsby-26" value="" style="group" parent="Omg0Aai6-efXcpIrVsby-17" vertex="1" connectable="0">
          <mxGeometry x="40" y="290" width="120" height="60" as="geometry" />
        </mxCell>
        <mxCell id="Omg0Aai6-efXcpIrVsby-27" value="" style="rounded=0;whiteSpace=wrap;html=1;" parent="Omg0Aai6-efXcpIrVsby-26" vertex="1">
          <mxGeometry y="20" width="120" height="40" as="geometry" />
        </mxCell>
        <mxCell id="Omg0Aai6-efXcpIrVsby-28" value="&lt;font color=&quot;#d16464&quot;&gt;ProfilePage&lt;/font&gt;" style="text;whiteSpace=wrap;html=1;" parent="Omg0Aai6-efXcpIrVsby-26" vertex="1">
          <mxGeometry x="20" y="20" width="100" height="40" as="geometry" />
        </mxCell>
        <mxCell id="Omg0Aai6-efXcpIrVsby-29" value="" style="rounded=0;whiteSpace=wrap;html=1;" parent="Omg0Aai6-efXcpIrVsby-26" vertex="1">
          <mxGeometry width="35" height="20" as="geometry" />
        </mxCell>
        <mxCell id="Omg0Aai6-efXcpIrVsby-22" value="" style="group" parent="Omg0Aai6-efXcpIrVsby-17" vertex="1" connectable="0">
          <mxGeometry x="40" y="180" width="120" height="60" as="geometry" />
        </mxCell>
        <mxCell id="Omg0Aai6-efXcpIrVsby-23" value="" style="rounded=0;whiteSpace=wrap;html=1;" parent="Omg0Aai6-efXcpIrVsby-22" vertex="1">
          <mxGeometry y="20" width="120" height="40" as="geometry" />
        </mxCell>
        <mxCell id="Omg0Aai6-efXcpIrVsby-24" value="&lt;font color=&quot;#d16464&quot;&gt;WorkoutDisplay&lt;/font&gt;" style="text;whiteSpace=wrap;html=1;" parent="Omg0Aai6-efXcpIrVsby-22" vertex="1">
          <mxGeometry x="20" y="20" width="100" height="40" as="geometry" />
        </mxCell>
        <mxCell id="Omg0Aai6-efXcpIrVsby-25" value="" style="rounded=0;whiteSpace=wrap;html=1;" parent="Omg0Aai6-efXcpIrVsby-22" vertex="1">
          <mxGeometry width="35" height="20" as="geometry" />
        </mxCell>
        <mxCell id="Omg0Aai6-efXcpIrVsby-34" value="" style="group" parent="Omg0Aai6-efXcpIrVsby-10" vertex="1" connectable="0">
          <mxGeometry x="340" y="230" width="270" height="460" as="geometry" />
        </mxCell>
        <mxCell id="Omg0Aai6-efXcpIrVsby-35" value="" style="rounded=0;whiteSpace=wrap;html=1;" parent="Omg0Aai6-efXcpIrVsby-34" vertex="1">
          <mxGeometry y="20" width="220" height="390" as="geometry" />
        </mxCell>
        <mxCell id="Omg0Aai6-efXcpIrVsby-36" value="" style="rounded=0;whiteSpace=wrap;html=1;" parent="Omg0Aai6-efXcpIrVsby-34" vertex="1">
          <mxGeometry width="100" height="20" as="geometry" />
        </mxCell>
        <mxCell id="Omg0Aai6-efXcpIrVsby-37" value="&lt;pre style=&quot;box-sizing: border-box; border: 0px; font-variant-numeric: inherit; font-variant-east-asian: inherit; font-variant-alternates: inherit; font-variant-position: inherit; font-stretch: inherit; line-height: 19.5px; font-optical-sizing: inherit; font-kerning: inherit; font-feature-settings: inherit; font-variation-settings: inherit; vertical-align: baseline; cursor: text; counter-reset: list-0 0; text-align: left; color: rgb(52, 52, 52) !important; margin-top: 5px !important; margin-bottom: 5px !important; padding: 5px 10px !important; overflow: hidden !important; background: rgb(247, 247, 247) !important; border-radius: 4px !important; font-size: 13px;&quot;&gt;Business Logic &lt;br&gt;&lt;/pre&gt;" style="text;html=1;align=center;verticalAlign=middle;resizable=0;points=[];autosize=1;strokeColor=none;fillColor=none;fontSize=13;" parent="Omg0Aai6-efXcpIrVsby-34" vertex="1">
          <mxGeometry x="40" y="20" width="150" height="50" as="geometry" />
        </mxCell>
        <mxCell id="Omg0Aai6-efXcpIrVsby-38" value="" style="group" parent="Omg0Aai6-efXcpIrVsby-34" vertex="1" connectable="0">
          <mxGeometry x="40" y="70" width="120" height="60" as="geometry" />
        </mxCell>
        <mxCell id="Omg0Aai6-efXcpIrVsby-39" value="" style="rounded=0;whiteSpace=wrap;html=1;" parent="Omg0Aai6-efXcpIrVsby-38" vertex="1">
          <mxGeometry y="20" width="120" height="40" as="geometry" />
        </mxCell>
        <mxCell id="Omg0Aai6-efXcpIrVsby-40" value="&lt;font color=&quot;#d16464&quot;&gt;WorkoutManager&lt;/font&gt;" style="text;whiteSpace=wrap;html=1;" parent="Omg0Aai6-efXcpIrVsby-38" vertex="1">
          <mxGeometry x="20" y="20" width="100" height="40" as="geometry" />
        </mxCell>
        <mxCell id="Omg0Aai6-efXcpIrVsby-41" value="" style="rounded=0;whiteSpace=wrap;html=1;" parent="Omg0Aai6-efXcpIrVsby-38" vertex="1">
          <mxGeometry width="35" height="20" as="geometry" />
        </mxCell>
        <mxCell id="Omg0Aai6-efXcpIrVsby-42" value="" style="group" parent="Omg0Aai6-efXcpIrVsby-34" vertex="1" connectable="0">
          <mxGeometry x="40" y="290" width="120" height="60" as="geometry" />
        </mxCell>
        <mxCell id="Omg0Aai6-efXcpIrVsby-43" value="" style="rounded=0;whiteSpace=wrap;html=1;" parent="Omg0Aai6-efXcpIrVsby-42" vertex="1">
          <mxGeometry y="20" width="120" height="40" as="geometry" />
        </mxCell>
        <mxCell id="Omg0Aai6-efXcpIrVsby-44" value="&lt;font color=&quot;#d16464&quot;&gt;ProgressTracker&lt;/font&gt;" style="text;whiteSpace=wrap;html=1;" parent="Omg0Aai6-efXcpIrVsby-42" vertex="1">
          <mxGeometry x="20" y="20" width="100" height="40" as="geometry" />
        </mxCell>
        <mxCell id="Omg0Aai6-efXcpIrVsby-45" value="" style="rounded=0;whiteSpace=wrap;html=1;" parent="Omg0Aai6-efXcpIrVsby-42" vertex="1">
          <mxGeometry width="35" height="20" as="geometry" />
        </mxCell>
        <mxCell id="Omg0Aai6-efXcpIrVsby-46" value="" style="group" parent="Omg0Aai6-efXcpIrVsby-34" vertex="1" connectable="0">
          <mxGeometry x="40" y="180" width="120" height="60" as="geometry" />
        </mxCell>
        <mxCell id="Omg0Aai6-efXcpIrVsby-47" value="" style="rounded=0;whiteSpace=wrap;html=1;" parent="Omg0Aai6-efXcpIrVsby-46" vertex="1">
          <mxGeometry y="20" width="120" height="40" as="geometry" />
        </mxCell>
        <mxCell id="Omg0Aai6-efXcpIrVsby-48" value="&lt;font color=&quot;#d16464&quot;&gt;NutritionCalculator&lt;/font&gt;" style="text;whiteSpace=wrap;html=1;" parent="Omg0Aai6-efXcpIrVsby-46" vertex="1">
          <mxGeometry x="20" y="20" width="100" height="40" as="geometry" />
        </mxCell>
        <mxCell id="Omg0Aai6-efXcpIrVsby-49" value="" style="rounded=0;whiteSpace=wrap;html=1;" parent="Omg0Aai6-efXcpIrVsby-46" vertex="1">
          <mxGeometry width="35" height="20" as="geometry" />
        </mxCell>
        <mxCell id="Omg0Aai6-efXcpIrVsby-84" value="" style="group" parent="Omg0Aai6-efXcpIrVsby-10" vertex="1" connectable="0">
          <mxGeometry x="930" y="220" width="270" height="460" as="geometry" />
        </mxCell>
        <mxCell id="Omg0Aai6-efXcpIrVsby-85" value="" style="rounded=0;whiteSpace=wrap;html=1;" parent="Omg0Aai6-efXcpIrVsby-84" vertex="1">
          <mxGeometry y="20" width="220" height="390" as="geometry" />
        </mxCell>
        <mxCell id="Omg0Aai6-efXcpIrVsby-86" value="" style="rounded=0;whiteSpace=wrap;html=1;" parent="Omg0Aai6-efXcpIrVsby-84" vertex="1">
          <mxGeometry width="100" height="20" as="geometry" />
        </mxCell>
        <mxCell id="Omg0Aai6-efXcpIrVsby-87" value="&lt;pre style=&quot;box-sizing: border-box; border: 0px; font-variant-numeric: inherit; font-variant-east-asian: inherit; font-variant-alternates: inherit; font-variant-position: inherit; font-stretch: inherit; line-height: 19.5px; font-optical-sizing: inherit; font-kerning: inherit; font-feature-settings: inherit; font-variation-settings: inherit; vertical-align: baseline; cursor: text; counter-reset: list-0 0; text-align: left; color: rgb(52, 52, 52) !important; margin-top: 5px !important; margin-bottom: 5px !important; padding: 5px 10px !important; overflow: hidden !important; background: rgb(247, 247, 247) !important; border-radius: 4px !important; font-size: 13px;&quot;&gt;Model&lt;br&gt;&lt;/pre&gt;" style="text;html=1;align=center;verticalAlign=middle;resizable=0;points=[];autosize=1;strokeColor=none;fillColor=none;fontSize=13;" parent="Omg0Aai6-efXcpIrVsby-84" vertex="1">
          <mxGeometry x="75" y="20" width="80" height="50" as="geometry" />
        </mxCell>
        <mxCell id="Omg0Aai6-efXcpIrVsby-88" value="" style="group" parent="Omg0Aai6-efXcpIrVsby-84" vertex="1" connectable="0">
          <mxGeometry x="40" y="70" width="120" height="60" as="geometry" />
        </mxCell>
        <mxCell id="Omg0Aai6-efXcpIrVsby-89" value="" style="rounded=0;whiteSpace=wrap;html=1;" parent="Omg0Aai6-efXcpIrVsby-88" vertex="1">
          <mxGeometry y="20" width="120" height="40" as="geometry" />
        </mxCell>
        <mxCell id="Omg0Aai6-efXcpIrVsby-90" value="&lt;font color=&quot;#d16464&quot;&gt;User&lt;/font&gt;" style="text;whiteSpace=wrap;html=1;" parent="Omg0Aai6-efXcpIrVsby-88" vertex="1">
          <mxGeometry x="20" y="20" width="100" height="40" as="geometry" />
        </mxCell>
        <mxCell id="Omg0Aai6-efXcpIrVsby-91" value="" style="rounded=0;whiteSpace=wrap;html=1;" parent="Omg0Aai6-efXcpIrVsby-88" vertex="1">
          <mxGeometry width="35" height="20" as="geometry" />
        </mxCell>
        <mxCell id="Omg0Aai6-efXcpIrVsby-92" value="" style="group" parent="Omg0Aai6-efXcpIrVsby-84" vertex="1" connectable="0">
          <mxGeometry x="40" y="290" width="120" height="60" as="geometry" />
        </mxCell>
        <mxCell id="Omg0Aai6-efXcpIrVsby-93" value="" style="rounded=0;whiteSpace=wrap;html=1;" parent="Omg0Aai6-efXcpIrVsby-92" vertex="1">
          <mxGeometry y="20" width="120" height="40" as="geometry" />
        </mxCell>
        <mxCell id="Omg0Aai6-efXcpIrVsby-94" value="&lt;font color=&quot;#d16464&quot;&gt;Nutritions&lt;/font&gt;" style="text;whiteSpace=wrap;html=1;" parent="Omg0Aai6-efXcpIrVsby-92" vertex="1">
          <mxGeometry x="20" y="20" width="100" height="40" as="geometry" />
        </mxCell>
        <mxCell id="Omg0Aai6-efXcpIrVsby-95" value="" style="rounded=0;whiteSpace=wrap;html=1;" parent="Omg0Aai6-efXcpIrVsby-92" vertex="1">
          <mxGeometry width="35" height="20" as="geometry" />
        </mxCell>
        <mxCell id="Omg0Aai6-efXcpIrVsby-96" value="" style="group" parent="Omg0Aai6-efXcpIrVsby-84" vertex="1" connectable="0">
          <mxGeometry x="40" y="180" width="120" height="60" as="geometry" />
        </mxCell>
        <mxCell id="Omg0Aai6-efXcpIrVsby-97" value="" style="rounded=0;whiteSpace=wrap;html=1;" parent="Omg0Aai6-efXcpIrVsby-96" vertex="1">
          <mxGeometry y="20" width="120" height="40" as="geometry" />
        </mxCell>
        <mxCell id="Omg0Aai6-efXcpIrVsby-98" value="&lt;font color=&quot;#d16464&quot;&gt;Workout&lt;/font&gt;" style="text;whiteSpace=wrap;html=1;" parent="Omg0Aai6-efXcpIrVsby-96" vertex="1">
          <mxGeometry x="20" y="20" width="100" height="40" as="geometry" />
        </mxCell>
        <mxCell id="Omg0Aai6-efXcpIrVsby-99" value="" style="rounded=0;whiteSpace=wrap;html=1;" parent="Omg0Aai6-efXcpIrVsby-96" vertex="1">
          <mxGeometry width="35" height="20" as="geometry" />
        </mxCell>
        <mxCell id="Omg0Aai6-efXcpIrVsby-68" value="" style="group" parent="Omg0Aai6-efXcpIrVsby-10" vertex="1" connectable="0">
          <mxGeometry x="630" y="230" width="270" height="460" as="geometry" />
        </mxCell>
        <mxCell id="Omg0Aai6-efXcpIrVsby-69" value="" style="rounded=0;whiteSpace=wrap;html=1;" parent="Omg0Aai6-efXcpIrVsby-68" vertex="1">
          <mxGeometry y="20" width="220" height="390" as="geometry" />
        </mxCell>
        <mxCell id="Omg0Aai6-efXcpIrVsby-70" value="" style="rounded=0;whiteSpace=wrap;html=1;" parent="Omg0Aai6-efXcpIrVsby-68" vertex="1">
          <mxGeometry width="100" height="20" as="geometry" />
        </mxCell>
        <mxCell id="Omg0Aai6-efXcpIrVsby-71" value="&lt;pre style=&quot;box-sizing: border-box; border: 0px; font-variant-numeric: inherit; font-variant-east-asian: inherit; font-variant-alternates: inherit; font-variant-position: inherit; font-stretch: inherit; line-height: 19.5px; font-optical-sizing: inherit; font-kerning: inherit; font-feature-settings: inherit; font-variation-settings: inherit; vertical-align: baseline; cursor: text; counter-reset: list-0 0; text-align: left; color: rgb(52, 52, 52) !important; margin-top: 5px !important; margin-bottom: 5px !important; padding: 5px 10px !important; overflow: hidden !important; background: rgb(247, 247, 247) !important; border-radius: 4px !important; font-size: 13px;&quot;&gt;Data Access&lt;br&gt;&lt;/pre&gt;" style="text;html=1;align=center;verticalAlign=middle;resizable=0;points=[];autosize=1;strokeColor=none;fillColor=none;fontSize=13;" parent="Omg0Aai6-efXcpIrVsby-68" vertex="1">
          <mxGeometry x="55" y="20" width="120" height="50" as="geometry" />
        </mxCell>
        <mxCell id="Omg0Aai6-efXcpIrVsby-72" value="" style="group" parent="Omg0Aai6-efXcpIrVsby-68" vertex="1" connectable="0">
          <mxGeometry x="40" y="80" width="120" height="60" as="geometry" />
        </mxCell>
        <mxCell id="Omg0Aai6-efXcpIrVsby-73" value="" style="rounded=0;whiteSpace=wrap;html=1;" parent="Omg0Aai6-efXcpIrVsby-72" vertex="1">
          <mxGeometry y="20" width="120" height="40" as="geometry" />
        </mxCell>
        <mxCell id="Omg0Aai6-efXcpIrVsby-74" value="&lt;font color=&quot;#d16464&quot;&gt;UserDataAccess&lt;/font&gt;" style="text;whiteSpace=wrap;html=1;" parent="Omg0Aai6-efXcpIrVsby-72" vertex="1">
          <mxGeometry x="20" y="20" width="100" height="40" as="geometry" />
        </mxCell>
        <mxCell id="Omg0Aai6-efXcpIrVsby-75" value="" style="rounded=0;whiteSpace=wrap;html=1;" parent="Omg0Aai6-efXcpIrVsby-72" vertex="1">
          <mxGeometry width="35" height="20" as="geometry" />
        </mxCell>
        <mxCell id="Omg0Aai6-efXcpIrVsby-76" value="" style="group" parent="Omg0Aai6-efXcpIrVsby-68" vertex="1" connectable="0">
          <mxGeometry x="40" y="290" width="140" height="60" as="geometry" />
        </mxCell>
        <mxCell id="Omg0Aai6-efXcpIrVsby-77" value="" style="rounded=0;whiteSpace=wrap;html=1;" parent="Omg0Aai6-efXcpIrVsby-76" vertex="1">
          <mxGeometry y="20" width="140" height="40" as="geometry" />
        </mxCell>
        <mxCell id="Omg0Aai6-efXcpIrVsby-78" value="&lt;font color=&quot;#d16464&quot;&gt;nutritionsDataAcsess&lt;/font&gt;" style="text;whiteSpace=wrap;html=1;" parent="Omg0Aai6-efXcpIrVsby-76" vertex="1">
          <mxGeometry x="20" y="20" width="100" height="40" as="geometry" />
        </mxCell>
        <mxCell id="Omg0Aai6-efXcpIrVsby-79" value="" style="rounded=0;whiteSpace=wrap;html=1;" parent="Omg0Aai6-efXcpIrVsby-76" vertex="1">
          <mxGeometry width="35" height="20" as="geometry" />
        </mxCell>
        <mxCell id="Omg0Aai6-efXcpIrVsby-80" value="" style="group" parent="Omg0Aai6-efXcpIrVsby-68" vertex="1" connectable="0">
          <mxGeometry x="40" y="180" width="150" height="60" as="geometry" />
        </mxCell>
        <mxCell id="Omg0Aai6-efXcpIrVsby-81" value="" style="rounded=0;whiteSpace=wrap;html=1;" parent="Omg0Aai6-efXcpIrVsby-80" vertex="1">
          <mxGeometry y="20" width="150" height="40" as="geometry" />
        </mxCell>
        <mxCell id="Omg0Aai6-efXcpIrVsby-82" value="&lt;font color=&quot;#d16464&quot;&gt;WorkoutDataAccess&lt;/font&gt;" style="text;whiteSpace=wrap;html=1;" parent="Omg0Aai6-efXcpIrVsby-80" vertex="1">
          <mxGeometry x="20" y="20" width="100" height="40" as="geometry" />
        </mxCell>
        <mxCell id="Omg0Aai6-efXcpIrVsby-83" value="" style="rounded=0;whiteSpace=wrap;html=1;" parent="Omg0Aai6-efXcpIrVsby-80" vertex="1">
          <mxGeometry width="35" height="20" as="geometry" />
        </mxCell>
        <mxCell id="Omg0Aai6-efXcpIrVsby-100" value="" style="group" parent="Omg0Aai6-efXcpIrVsby-10" vertex="1" connectable="0">
          <mxGeometry x="1211" y="220" width="270" height="460" as="geometry" />
        </mxCell>
        <mxCell id="Omg0Aai6-efXcpIrVsby-101" value="" style="rounded=0;whiteSpace=wrap;html=1;" parent="Omg0Aai6-efXcpIrVsby-100" vertex="1">
          <mxGeometry y="20" width="220" height="390" as="geometry" />
        </mxCell>
        <mxCell id="Omg0Aai6-efXcpIrVsby-102" value="" style="rounded=0;whiteSpace=wrap;html=1;" parent="Omg0Aai6-efXcpIrVsby-100" vertex="1">
          <mxGeometry width="100" height="20" as="geometry" />
        </mxCell>
        <mxCell id="Omg0Aai6-efXcpIrVsby-103" value="&lt;pre style=&quot;box-sizing: border-box; border: 0px; font-variant-numeric: inherit; font-variant-east-asian: inherit; font-variant-alternates: inherit; font-variant-position: inherit; font-stretch: inherit; line-height: 19.5px; font-optical-sizing: inherit; font-kerning: inherit; font-feature-settings: inherit; font-variation-settings: inherit; vertical-align: baseline; cursor: text; counter-reset: list-0 0; text-align: left; color: rgb(52, 52, 52) !important; margin-top: 5px !important; margin-bottom: 5px !important; padding: 5px 10px !important; overflow: hidden !important; background: rgb(247, 247, 247) !important; border-radius: 4px !important; font-size: 13px;&quot;&gt;Service&lt;br&gt;&lt;/pre&gt;" style="text;html=1;align=center;verticalAlign=middle;resizable=0;points=[];autosize=1;strokeColor=none;fillColor=none;fontSize=13;" parent="Omg0Aai6-efXcpIrVsby-100" vertex="1">
          <mxGeometry x="70" y="20" width="90" height="50" as="geometry" />
        </mxCell>
        <mxCell id="Omg0Aai6-efXcpIrVsby-104" value="" style="group" parent="Omg0Aai6-efXcpIrVsby-100" vertex="1" connectable="0">
          <mxGeometry x="40" y="70" width="150" height="60" as="geometry" />
        </mxCell>
        <mxCell id="Omg0Aai6-efXcpIrVsby-105" value="" style="rounded=0;whiteSpace=wrap;html=1;" parent="Omg0Aai6-efXcpIrVsby-104" vertex="1">
          <mxGeometry y="20" width="150" height="40" as="geometry" />
        </mxCell>
        <mxCell id="Omg0Aai6-efXcpIrVsby-106" value="&lt;font color=&quot;#d16464&quot;&gt;AuthenticationService&lt;/font&gt;" style="text;whiteSpace=wrap;html=1;" parent="Omg0Aai6-efXcpIrVsby-104" vertex="1">
          <mxGeometry x="20" y="20" width="100" height="40" as="geometry" />
        </mxCell>
        <mxCell id="Omg0Aai6-efXcpIrVsby-107" value="" style="rounded=0;whiteSpace=wrap;html=1;" parent="Omg0Aai6-efXcpIrVsby-104" vertex="1">
          <mxGeometry width="35" height="20" as="geometry" />
        </mxCell>
        <mxCell id="Omg0Aai6-efXcpIrVsby-112" value="" style="group" parent="Omg0Aai6-efXcpIrVsby-100" vertex="1" connectable="0">
          <mxGeometry x="40" y="180" width="140" height="60" as="geometry" />
        </mxCell>
        <mxCell id="Omg0Aai6-efXcpIrVsby-113" value="" style="rounded=0;whiteSpace=wrap;html=1;" parent="Omg0Aai6-efXcpIrVsby-112" vertex="1">
          <mxGeometry y="20" width="140" height="40" as="geometry" />
        </mxCell>
        <mxCell id="Omg0Aai6-efXcpIrVsby-114" value="&lt;font color=&quot;#d16464&quot;&gt;NotificationService&lt;/font&gt;" style="text;whiteSpace=wrap;html=1;" parent="Omg0Aai6-efXcpIrVsby-112" vertex="1">
          <mxGeometry x="20" y="20" width="100" height="40" as="geometry" />
        </mxCell>
        <mxCell id="Omg0Aai6-efXcpIrVsby-115" value="" style="rounded=0;whiteSpace=wrap;html=1;" parent="Omg0Aai6-efXcpIrVsby-112" vertex="1">
          <mxGeometry width="35" height="20" as="geometry" />
        </mxCell>
        <mxCell id="6h02HKcu4iGIb157T7gl-9" value="" style="html=1;verticalAlign=bottom;endArrow=open;dashed=1;endSize=8;curved=0;rounded=0;exitX=1.009;exitY=0.05;exitDx=0;exitDy=0;exitPerimeter=0;entryX=-0.002;entryY=0.05;entryDx=0;entryDy=0;entryPerimeter=0;" edge="1" parent="Omg0Aai6-efXcpIrVsby-10" source="Omg0Aai6-efXcpIrVsby-14" target="Omg0Aai6-efXcpIrVsby-35">
          <mxGeometry relative="1" as="geometry">
            <mxPoint x="240" y="180" as="sourcePoint" />
            <mxPoint x="160" y="180" as="targetPoint" />
          </mxGeometry>
        </mxCell>
        <mxCell id="6h02HKcu4iGIb157T7gl-10" value="" style="html=1;verticalAlign=bottom;endArrow=open;dashed=1;endSize=8;curved=0;rounded=0;exitX=1.005;exitY=0.164;exitDx=0;exitDy=0;exitPerimeter=0;entryX=0.006;entryY=0.157;entryDx=0;entryDy=0;entryPerimeter=0;" edge="1" parent="Omg0Aai6-efXcpIrVsby-10" source="Omg0Aai6-efXcpIrVsby-35" target="Omg0Aai6-efXcpIrVsby-69">
          <mxGeometry relative="1" as="geometry">
            <mxPoint x="570" y="190" as="sourcePoint" />
            <mxPoint x="490" y="190" as="targetPoint" />
          </mxGeometry>
        </mxCell>
        <mxCell id="6h02HKcu4iGIb157T7gl-14" value="" style="html=1;verticalAlign=bottom;endArrow=open;dashed=1;endSize=8;curved=0;rounded=0;exitX=1.004;exitY=0.225;exitDx=0;exitDy=0;entryX=0;entryY=0.25;entryDx=0;entryDy=0;exitPerimeter=0;" edge="1" parent="Omg0Aai6-efXcpIrVsby-10" source="Omg0Aai6-efXcpIrVsby-69" target="Omg0Aai6-efXcpIrVsby-85">
          <mxGeometry relative="1" as="geometry">
            <mxPoint x="940" y="150" as="sourcePoint" />
            <mxPoint x="900" y="240" as="targetPoint" />
          </mxGeometry>
        </mxCell>
        <mxCell id="6h02HKcu4iGIb157T7gl-15" value="" style="html=1;verticalAlign=bottom;endArrow=open;dashed=1;endSize=8;curved=0;rounded=0;exitX=1;exitY=0.25;exitDx=0;exitDy=0;entryX=0;entryY=0.25;entryDx=0;entryDy=0;" edge="1" parent="Omg0Aai6-efXcpIrVsby-10" source="Omg0Aai6-efXcpIrVsby-85" target="Omg0Aai6-efXcpIrVsby-101">
          <mxGeometry relative="1" as="geometry">
            <mxPoint x="1170" y="140" as="sourcePoint" />
            <mxPoint x="1090" y="140" as="targetPoint" />
          </mxGeometry>
        </mxCell>
        <mxCell id="6h02HKcu4iGIb157T7gl-16" value="" style="html=1;verticalAlign=bottom;endArrow=open;dashed=1;endSize=8;rounded=0;exitX=0.955;exitY=0;exitDx=0;exitDy=0;exitPerimeter=0;entryX=0.75;entryY=0;entryDx=0;entryDy=0;edgeStyle=orthogonalEdgeStyle;" edge="1" parent="Omg0Aai6-efXcpIrVsby-10" source="Omg0Aai6-efXcpIrVsby-35" target="Omg0Aai6-efXcpIrVsby-85">
          <mxGeometry relative="1" as="geometry">
            <mxPoint x="550.0999999999999" y="240.14" as="sourcePoint" />
            <mxPoint x="550" y="170" as="targetPoint" />
            <Array as="points">
              <mxPoint x="550" y="110" />
              <mxPoint x="1095" y="110" />
            </Array>
          </mxGeometry>
        </mxCell>
        <mxCell id="6h02HKcu4iGIb157T7gl-19" value="" style="html=1;verticalAlign=bottom;endArrow=open;dashed=1;endSize=8;rounded=0;exitX=0.955;exitY=0;exitDx=0;exitDy=0;exitPerimeter=0;entryX=0.75;entryY=0;entryDx=0;entryDy=0;edgeStyle=orthogonalEdgeStyle;" edge="1" parent="Omg0Aai6-efXcpIrVsby-10">
          <mxGeometry relative="1" as="geometry">
            <mxPoint x="800" y="250" as="sourcePoint" />
            <mxPoint x="1345" y="240" as="targetPoint" />
            <Array as="points">
              <mxPoint x="800" y="150" />
              <mxPoint x="1345" y="150" />
            </Array>
          </mxGeometry>
        </mxCell>
        <mxCell id="6h02HKcu4iGIb157T7gl-40" value="Text" style="edgeLabel;html=1;align=center;verticalAlign=middle;resizable=0;points=[];" vertex="1" connectable="0" parent="6h02HKcu4iGIb157T7gl-19">
          <mxGeometry x="-0.5137" y="-2" relative="1" as="geometry">
            <mxPoint as="offset" />
          </mxGeometry>
        </mxCell>
        <mxCell id="6h02HKcu4iGIb157T7gl-20" value="" style="group" vertex="1" connectable="0" parent="Omg0Aai6-efXcpIrVsby-10">
          <mxGeometry x="1210" y="780" width="270" height="220" as="geometry" />
        </mxCell>
        <mxCell id="6h02HKcu4iGIb157T7gl-21" value="" style="rounded=0;whiteSpace=wrap;html=1;" vertex="1" parent="6h02HKcu4iGIb157T7gl-20">
          <mxGeometry y="9.57" width="220" height="120.43" as="geometry" />
        </mxCell>
        <mxCell id="6h02HKcu4iGIb157T7gl-22" value="" style="rounded=0;whiteSpace=wrap;html=1;" vertex="1" parent="6h02HKcu4iGIb157T7gl-20">
          <mxGeometry width="100" height="9.565217391304348" as="geometry" />
        </mxCell>
        <mxCell id="6h02HKcu4iGIb157T7gl-23" value="&lt;pre style=&quot;box-sizing: border-box; border: 0px; font-variant-numeric: inherit; font-variant-east-asian: inherit; font-variant-alternates: inherit; font-variant-position: inherit; font-stretch: inherit; line-height: 19.5px; font-optical-sizing: inherit; font-kerning: inherit; font-feature-settings: inherit; font-variation-settings: inherit; vertical-align: baseline; cursor: text; counter-reset: list-0 0; text-align: left; color: rgb(52, 52, 52) !important; margin-top: 5px !important; margin-bottom: 5px !important; padding: 5px 10px !important; overflow: hidden !important; background: rgb(247, 247, 247) !important; border-radius: 4px !important; font-size: 13px;&quot;&gt;External System&lt;br&gt;&lt;/pre&gt;" style="text;html=1;align=center;verticalAlign=middle;resizable=0;points=[];autosize=1;strokeColor=none;fillColor=none;fontSize=13;" vertex="1" parent="6h02HKcu4iGIb157T7gl-20">
          <mxGeometry x="35" y="44.78521739130435" width="150" height="50" as="geometry" />
        </mxCell>
        <mxCell id="6h02HKcu4iGIb157T7gl-37" value="" style="html=1;verticalAlign=bottom;endArrow=open;dashed=1;endSize=8;curved=0;rounded=0;entryX=0.5;entryY=1;entryDx=0;entryDy=0;exitX=0.5;exitY=0;exitDx=0;exitDy=0;" edge="1" parent="Omg0Aai6-efXcpIrVsby-10" source="6h02HKcu4iGIb157T7gl-21" target="Omg0Aai6-efXcpIrVsby-101">
          <mxGeometry relative="1" as="geometry">
            <mxPoint x="1100" y="710" as="sourcePoint" />
            <mxPoint x="1020" y="710" as="targetPoint" />
          </mxGeometry>
        </mxCell>
        <mxCell id="6h02HKcu4iGIb157T7gl-41" value="" style="html=1;verticalAlign=bottom;endArrow=open;dashed=1;endSize=8;rounded=0;exitX=0.5;exitY=1;exitDx=0;exitDy=0;entryX=0.25;entryY=1;entryDx=0;entryDy=0;edgeStyle=orthogonalEdgeStyle;" edge="1" parent="Omg0Aai6-efXcpIrVsby-10" source="Omg0Aai6-efXcpIrVsby-14" target="Omg0Aai6-efXcpIrVsby-101">
          <mxGeometry relative="1" as="geometry">
            <mxPoint x="290" y="879.91" as="sourcePoint" />
            <mxPoint x="835" y="869.91" as="targetPoint" />
            <Array as="points">
              <mxPoint x="170" y="730" />
              <mxPoint x="1266" y="730" />
            </Array>
          </mxGeometry>
        </mxCell>
        <mxCell id="6h02HKcu4iGIb157T7gl-42" value="Text" style="edgeLabel;html=1;align=center;verticalAlign=middle;resizable=0;points=[];" vertex="1" connectable="0" parent="6h02HKcu4iGIb157T7gl-41">
          <mxGeometry x="-0.5137" y="-2" relative="1" as="geometry">
            <mxPoint as="offset" />
          </mxGeometry>
        </mxCell>
      </root>
    </mxGraphModel>
  </diagram>
</mxfile>
